<?xml version="1.0" encoding="UTF-8"?>
<!DOCTYPE svg PUBLIC "-//W3C//DTD SVG 1.1//EN" "http://www.w3.org/Graphics/SVG/1.1/DTD/svg11.dtd">
<!-- Creator: CorelDRAW 2019 (64-Bit) -->
<svg xmlns="http://www.w3.org/2000/svg" xml:space="preserve" width="210mm" height="297mm" version="1.1" style="shape-rendering:geometricPrecision; text-rendering:geometricPrecision; image-rendering:optimizeQuality; fill-rule:evenodd; clip-rule:evenodd"
viewBox="0 0 21000 29700"
 xmlns:xlink="http://www.w3.org/1999/xlink"
 xmlns:xodm="http://www.corel.com/coreldraw/odm/2003">
 <defs>
  <style type="text/css">
   <![CDATA[
    .fil3 {fill:#0ACF83}
    .fil4 {fill:#1ABBFE}
    .fil1 {fill:#A159FF}
    .fil2 {fill:#F24E1E}
    .fil0 {fill:#FF7162}
   ]]>
  </style>
 </defs>
 <g id="Слой_x0020_1">
  <metadata id="CorelCorpID_0Corel-Layer"/>
  <g id="_1880624892448">
   <path class="fil0" d="M189.6 14751.63c2.01,1.03 88.95,-0.4 100.55,0.29l87.36 0.18 15.72 -0.33c4.72,-0.4 9.01,-0.71 13.19,-1.69 2.23,-0.52 4.12,-0.89 6.16,-1.39 15.53,-3.85 31.88,-13.3 43.15,-24.57 3.4,-3.39 7.76,-8.11 10.54,-12.14 4.77,-6.94 7.51,-11.03 10.92,-19 0.77,-1.82 1.47,-3.61 2.19,-5.37 1.67,-4.05 4.09,-13.79 4.59,-18.08 0.38,-3.21 0.87,-6.82 1.16,-10.48l0 -10.29c-0.03,-0.22 -0.05,-0.44 -0.08,-0.66 -0.72,-5.24 -0.67,-7.64 -1.81,-13.31 -1.45,-7.26 -4.33,-16.19 -7.58,-22.65 -0.84,-1.66 -1.51,-3.25 -2.45,-4.81 -1.01,-1.7 -1.79,-3.07 -2.79,-4.76 -2.31,-3.88 -3.74,-5.46 -6.28,-8.84 -2.27,-3.02 -6.2,-7.33 -8.86,-9.89 -4.44,-4.28 -9.74,-8.29 -14.89,-11.71 -2.99,-1.99 -6.35,-3.78 -9.67,-5.44 -2.15,-1.07 -8.19,-3.82 -10.58,-4.53 -1.92,-0.57 -3.69,-1.26 -5.71,-1.86 -0.85,-0.25 -1.88,-0.44 -2.89,-0.73 -1.22,-0.35 -1.97,-0.53 -3.19,-0.74 -10.98,-1.82 -11.62,-2.08 -19.76,-2.11l-8.05 0 -90.58 0 0 194.86 -100.36 0.05z"/>
   <path class="fil1" d="M186.77 14946.77c1.68,0.52 69.4,0.18 77.38,0.18 8.44,0 17.66,0.35 26,-0.04l0.09 -88.18c-0.4,-5.92 -0.39,-12.83 -0.01,-18.75l-0.08 -88.06c-11.6,-0.69 -98.54,0.74 -100.55,-0.29l-2.83 0.16 -10.5 1.21c-8.42,1.16 -19.1,4.99 -26.77,8.61 -10.39,4.9 -22.48,14.21 -30.22,22.98 -0.99,1.12 -1.71,2.18 -2.71,3.33 -1.84,2.1 -3.44,4.41 -5.02,6.78 -1.63,2.44 -3.05,4.62 -4.5,7.28 -0.73,1.35 -1.31,2.35 -2.01,3.74 -6.1,12.26 -10.17,26.65 -10.17,43.33 0,8.39 0.72,14.45 2.19,21.39 3.04,14.37 10.12,28.5 19.1,39.85 0.96,1.22 1.74,2.08 2.72,3.33l4.58 4.78c4.36,4.36 9.08,8.39 14.21,11.79 5.93,3.93 12.99,7.9 19.66,10.27 9.33,3.32 11.1,3.9 21.11,5.5 4.16,0.66 4.41,0.43 8.33,0.81z"/>
   <path class="fil2" d="M186.77 14751.79l2.83 -0.16 100.36 -0.05 0 -194.86 -97.55 0c-4.1,0.05 -6.82,0.12 -7.54,0.22 -1.19,0.15 -2.19,0.06 -3.38,0.24l-9.84 1.65c-11.02,1.82 -27.61,9.64 -36.36,16.24 -1.55,1.16 -2.72,2.12 -4.28,3.28l-4.02 3.54c-0.81,0.82 -1.17,0.96 -1.97,1.66 -1.81,1.59 -3.93,4.21 -5.6,5.89 -0.78,0.78 -0.93,1.19 -1.65,1.97l-5.07 6.42c-9.72,13.75 -14.28,26.75 -17.02,43.14 -0.51,3.11 -0.73,6.84 -0.81,10.51l0 7.53 1.53 13.17c1.43,6.73 2.67,11.37 5.04,17.63l4.81 10.31c5.51,10.34 14.59,22.09 23.55,29.05 11.9,9.23 17.38,12.49 31.61,17.66 3.99,1.46 7.38,2.16 11.93,3.19 4.4,1 8.52,1.26 13.43,1.77z"/>
   <path class="fil3" d="M290.15 14946.91c-8.34,0.39 -17.56,0.04 -26,0.04 -7.98,0 -75.7,0.34 -77.38,-0.18l-9.32 1.19c-16.44,2.29 -31.45,9.31 -44.45,19.04l-5.79 4.79c-5.78,4.42 -14.92,16.12 -19.03,23.29 -0.65,1.14 -1.22,2.16 -1.82,3.31 -0.38,0.72 -0.57,1 -0.95,1.78 -0.37,0.78 -0.58,1 -0.95,1.77 -2,4.13 -3.07,7.21 -4.5,11.23l-1.85 6c-2.59,11.13 -3.24,13.71 -3.24,26.08 0,21.78 8.47,45.88 22.75,61.9 0.95,1.06 1.38,1.69 2.42,2.72 1.03,1.02 1.49,1.81 2.56,2.87 3.41,3.37 7.46,6.99 11.31,9.86 3.75,2.81 8.75,6.13 12.95,8.21l18.7 7.6c6.16,1.8 16.34,3.54 22.64,3.58l10.26 0c1.67,-0.07 3.4,-0.22 5.33,-0.51 6.03,-0.91 7.14,-0.96 13.44,-2.57 13.2,-3.38 28.29,-10.94 38.23,-19.82l8.16 -7.86c1.83,-1.83 3.28,-3.62 4.97,-5.61l2.26 -2.88c0.79,-1.01 1.43,-2.08 2.24,-3.2 2.28,-3.13 4.03,-6.48 5.89,-9.83 4.27,-7.67 7.85,-18.46 9.58,-27.61 1.9,-10.08 1.59,-19.68 1.59,-30.15 0,-28.35 0,-56.7 0,-85.04z"/>
   <path class="fil4" d="M377.51 14752.1c-0.32,0.14 -4.15,0.66 -4.62,0.73 -31.53,4.6 -58.7,24.87 -72.87,53.19 -1.23,2.48 -2.34,4.83 -3.4,7.48 -2.64,6.63 -4.61,14.42 -5.65,21.56 -0.06,0.4 -0.64,4.71 -0.74,4.92 -0.38,5.92 -0.39,12.83 0.01,18.75l1.12 7.56c3.63,21.76 14.21,39.32 29.69,54.64 9.21,9.12 24.4,17.44 36.62,21.43 5.61,1.83 16.77,4.36 22.57,4.33 1.83,-0.01 2.19,0.3 3.91,0.32 7.38,0.09 13.59,-0.28 20.88,-1.51l10.69 -2.62c6.71,-2.17 9.38,-3.2 15.96,-6.4 6.23,-3.02 10.96,-6.42 16.4,-10.51 3.19,-2.4 5.44,-4.68 8.3,-7.42l0.3 -0.3c3.55,-3.71 5.8,-6.03 9.02,-10.33 2.48,-3.32 5.05,-7.14 7.04,-10.8 4.81,-8.88 7.59,-15.82 9.98,-25.69 0.27,-1.14 0.42,-2.26 0.71,-3.52 0.33,-1.37 0.44,-2.38 0.66,-3.87 0.23,-1.52 0.34,-2.46 0.57,-3.97 0.22,-1.42 0.37,-3 0.47,-4.69l0 -10.08c-0.25,-5.18 -0.84,-10.34 -1.64,-14.26 -5.53,-27.18 -19.69,-48.11 -43.16,-63.85l-8.44 -4.87c-1.11,-0.53 -1.83,-0.93 -3.07,-1.46 -10.25,-4.35 -15.67,-6.52 -27.48,-8.19l-8.11 -0.9 -15.72 0.33z"/>
  </g>
 </g>
</svg>
