<?xml version="1.0" encoding="UTF-8"?>
<!DOCTYPE svg PUBLIC "-//W3C//DTD SVG 1.1//EN" "http://www.w3.org/Graphics/SVG/1.1/DTD/svg11.dtd">
<!-- Creator: CorelDRAW 2019 (64-Bit) -->
<svg xmlns="http://www.w3.org/2000/svg" xml:space="preserve" width="210mm" height="297mm" version="1.1" style="shape-rendering:geometricPrecision; text-rendering:geometricPrecision; image-rendering:optimizeQuality; fill-rule:evenodd; clip-rule:evenodd"
viewBox="0 0 21000 29700"
 xmlns:xlink="http://www.w3.org/1999/xlink"
 xmlns:xodm="http://www.corel.com/coreldraw/odm/2003">
 <defs>
  <style type="text/css">
   <![CDATA[
    .fil0 {fill:#001834}
    .fil1 {fill:#00A9FE}
   ]]>
  </style>
 </defs>
 <g id="Слой_x0020_1">
  <metadata id="CorelCorpID_0Corel-Layer"/>
  <g id="_2191633103744">
   <path class="fil0" d="M569.79 14947.45c7.1,0 15.73,-1.12 21.44,-3.82 5.14,-2.42 10.16,-8.7 7.22,-16.22 -7.67,-19.64 -65.95,-21.31 -92.72,-59.68 -15.78,-22.62 -12.11,-57.46 4.25,-76.7 7.58,-8.9 16,-15.76 29.34,-21.44 26.2,-11.15 72.58,-10.3 99.84,-1.37 5.37,1.76 10.13,2.03 10.13,8.85l0 45.35c0,8.33 -9.77,2.01 -13.02,0.64 -4.82,-2.02 -9.72,-3.84 -15.32,-5.31 -13.83,-3.63 -60.56,-12.25 -65.49,6.67 -8.57,32.88 105.64,27.83 105.64,99.59l0 4.83c0,26 -14.67,43.33 -28.24,53.39 -29.98,22.24 -90.45,21.05 -125.87,8.2 -4.92,-1.79 -12.18,-3.28 -12.18,-9.58l0 -47.77c0,-6.35 2.27,-4.76 6.18,-2.55 20.75,11.68 44.6,16.92 68.8,16.92zm-321.32 -254.67c5.14,-1.33 28.05,-1.05 35.32,-1.22 31.92,-0.76 73.51,-3.42 102.55,4.07 38.09,9.83 65.28,33.43 74.58,70.57 5.18,20.71 4.12,44.83 -2.2,64.25 -11.96,36.68 -44.18,57.66 -80.78,64.4 -32.85,6.06 -42.97,1.52 -67.78,2.93 -1.55,13.77 1.64,89.35 -0.79,94.09 -2.46,3.19 -10.09,1.74 -14.11,1.74 -7.31,0 -44.83,0.8 -46.45,-0.8 -1.83,-1.81 -0.9,-136.09 -0.9,-149.83 0,-8.91 -0.86,-145.13 0.56,-150.2zm-155.18 -55.4l0 434.17c0,25.58 10.16,51.45 25.4,71.36 1,1.31 2.33,3.08 3.49,4.37 4.62,5.19 9.49,10.32 15,14.63l8.55 6.56c5.56,4.18 12.7,7.74 19.31,10.93 3.24,1.56 7.02,2.86 10.42,4.1 10.71,3.88 26.49,6.57 38.78,6.57l445.05 0c22.48,0 51.01,-8.38 68.16,-21.33l8.55 -6.57c10.45,-8.43 17.15,-16.43 24.54,-27.46 11.5,-17.13 19.69,-40.51 19.69,-63.16l0 -434.17c0,-21.56 -9.64,-49 -22.54,-66.35 -1.2,-1.61 -1.98,-2.48 -3.21,-4.05 -1.3,-1.66 -2.05,-2.98 -3.42,-4.43 -2.58,-2.74 -4.5,-5.32 -7.26,-7.87l-7.71 -6.8c-22.31,-17.23 -45.72,-27.81 -76.8,-27.81l-445.05 0c-17.88,0 -36.42,4.72 -48.79,10.48 -10.37,4.83 -23.54,12.46 -31.48,20.52 -1.69,1.71 -2.6,2.09 -4.25,3.61 -3.87,3.58 -10.19,11.42 -13.62,16 -2.25,3.01 -3.81,5.45 -5.69,8.84 -6.12,11.04 -10.03,18.53 -13.25,31.49 -1.94,7.82 -3.87,17.01 -3.87,26.37z"/>
   <path class="fil1" d="M310.43 14843.54l-0.09 -96.06c18.17,-1.77 46.99,-1.78 64.09,4.86 32.52,12.63 32.39,52.39 19.59,70.27 -15.81,22.08 -57.84,23.67 -83.59,20.93zm-61.96 -150.76c-1.42,5.07 -0.56,141.29 -0.56,150.2 0,13.74 -0.93,148.02 0.9,149.83 1.62,1.6 39.14,0.8 46.45,0.8 4.02,0 11.65,1.45 14.11,-1.74 2.43,-4.74 -0.76,-80.32 0.79,-94.09 24.81,-1.41 34.93,3.13 67.78,-2.93 36.6,-6.74 68.82,-27.72 80.78,-64.4 6.32,-19.42 7.38,-43.54 2.2,-64.25 -9.3,-37.14 -36.49,-60.74 -74.58,-70.57 -29.04,-7.49 -70.63,-4.83 -102.55,-4.07 -7.27,0.17 -30.18,-0.11 -35.32,1.22z"/>
   <path class="fil1" d="M569.79 14947.45c-24.2,0 -48.05,-5.24 -68.8,-16.92 -3.91,-2.21 -6.18,-3.8 -6.18,2.55l0 47.77c0,6.3 7.26,7.79 12.18,9.58 35.42,12.85 95.89,14.04 125.87,-8.2 13.57,-10.06 28.24,-27.39 28.24,-53.39l0 -4.83c0,-71.76 -114.21,-66.71 -105.64,-99.59 4.93,-18.92 51.66,-10.3 65.49,-6.67 5.6,1.47 10.5,3.29 15.32,5.31 3.25,1.37 13.02,7.69 13.02,-0.64l0 -45.35c0,-6.82 -4.76,-7.09 -10.13,-8.85 -27.26,-8.93 -73.64,-9.78 -99.84,1.37 -13.34,5.68 -21.76,12.54 -29.34,21.44 -16.36,19.24 -20.03,54.08 -4.25,76.7 26.77,38.37 85.05,40.04 92.72,59.68 2.94,7.52 -2.08,13.8 -7.22,16.22 -5.71,2.7 -14.34,3.82 -21.44,3.82z"/>
   <path class="fil0" d="M310.43 14843.54c25.75,2.74 67.78,1.15 83.59,-20.93 12.8,-17.88 12.93,-57.64 -19.59,-70.27 -17.1,-6.64 -45.92,-6.63 -64.09,-4.86l0.09 96.06z"/>
  </g>
 </g>
</svg>
